<svg width="22" height="22" viewBox="0 0 22 22" fill="none" xmlns="http://www.w3.org/2000/svg">
<path d="M13.0625 3.26395C13.0625 3.9126 12.7102 4.17351 12.6998 4.18107C12.5417 4.2866 12.4991 4.49973 12.6046 4.65785C12.6706 4.7572 12.7799 4.81082 12.891 4.81082C12.9563 4.81082 13.0226 4.79192 13.0814 4.75307C13.1086 4.73485 13.75 4.29589 13.75 3.26395C13.75 2.71395 13.518 2.42554 13.3313 2.19317C13.1753 1.9986 13.0625 1.85835 13.0625 1.5452C13.0625 0.91201 13.4121 0.638385 13.4341 0.621541C13.5867 0.512573 13.6242 0.300823 13.5166 0.145791C13.4083 -0.0102711 13.1942 -0.0487711 13.0381 0.0595101C13.0113 0.0784164 12.375 0.532166 12.375 1.5452C12.375 2.10001 12.6084 2.39048 12.7957 2.62389C12.9563 2.82395 13.0625 2.95629 13.0625 3.26395Z" fill="#2D8CA7"/>
<path d="M17.1875 3.26395C17.1875 3.9126 16.8352 4.17351 16.8248 4.18107C16.6667 4.2866 16.6241 4.49973 16.7296 4.65785C16.7956 4.7572 16.9049 4.81082 17.016 4.81082C17.0813 4.81082 17.1476 4.79192 17.2064 4.75307C17.2336 4.73485 17.875 4.29589 17.875 3.26395C17.875 2.71395 17.643 2.42554 17.4563 2.19317C17.3003 1.9986 17.1875 1.85835 17.1875 1.5452C17.1875 0.91201 17.5371 0.638385 17.5591 0.621541C17.7117 0.512573 17.7492 0.300823 17.6416 0.145791C17.5333 -0.0102711 17.3192 -0.0487711 17.1631 0.0595101C17.1363 0.0784164 16.5 0.532166 16.5 1.5452C16.5 2.10001 16.7334 2.39048 16.9207 2.62389C17.0813 2.82395 17.1875 2.95629 17.1875 3.26395Z" fill="#2D8CA7"/>
<path d="M8.9375 3.26395C8.9375 3.9126 8.58516 4.17351 8.57484 4.18107C8.41672 4.2866 8.37409 4.49973 8.47962 4.65785C8.54562 4.7572 8.65494 4.81082 8.76597 4.81082C8.83128 4.81082 8.89763 4.79192 8.95641 4.75307C8.98356 4.73485 9.625 4.29589 9.625 3.26395C9.625 2.71395 9.39297 2.42554 9.20631 2.19317C9.05025 1.9986 8.9375 1.85835 8.9375 1.5452C8.9375 0.91201 9.28709 0.638385 9.30909 0.621541C9.46172 0.512573 9.49919 0.300823 9.39159 0.145791C9.28331 -0.0102711 9.06916 -0.0487711 8.91309 0.0595101C8.88628 0.0784164 8.25 0.532166 8.25 1.5452C8.25 2.10001 8.48341 2.39048 8.67075 2.62389C8.83128 2.82395 8.9375 2.95629 8.9375 3.26395Z" fill="#2D8CA7"/>
<path d="M21.6562 19.9355H4.46875C4.27866 19.9355 4.125 20.0892 4.125 20.2793V20.6237C4.125 21.3827 4.74066 21.9987 5.5 21.9987V21.998H20.625V21.9987C21.3843 21.9987 22 21.3827 22 20.6237V20.2793C22 20.0892 21.8463 19.9355 21.6562 19.9355Z" fill="#2D8CA7"/>
<path d="M21.3125 6.18555H17.875V9.82448L19.1493 11.0988C19.2139 11.1634 19.25 11.2504 19.25 11.3418V14.0918C19.25 14.2819 19.0963 14.4355 18.9062 14.4355H16.1562C15.9662 14.4355 15.8125 14.2819 15.8125 14.0918V11.3418C15.8125 11.2504 15.8486 11.163 15.9132 11.0988L17.1875 9.82448V6.18555H4.46875H4.125H1.375C0.615656 6.18555 0 6.8012 0 7.56055V10.3105L0.00309375 10.3112H0C0.00034375 12.5886 1.84697 14.4355 4.125 14.4355H5.13494C6.62544 17.2942 9.61503 19.248 13.0625 19.248C17.9984 19.248 22 15.2461 22 10.3105V6.87305C22 6.49355 21.692 6.18555 21.3125 6.18555ZM4.125 12.373C2.98616 12.373 2.06284 11.4497 2.0625 10.3112V8.24805H4.125V10.3105C4.125 11.0207 4.21025 11.7106 4.367 12.373H4.125Z" fill="#2D8CA7"/>
<path d="M16.5 13.7483H18.5625V11.4844L17.5312 10.4531L16.5 11.4844V13.7483Z" fill="#2D8CA7"/>
</svg>
